<svg id="Group_13579" data-name="Group 13579" xmlns="http://www.w3.org/2000/svg" width="56.785" height="54.986" viewBox="0 0 56.785 54.986">
  <rect id="Rectangle_4_copy_8" data-name="Rectangle 4 copy 8" width="56.785" height="54.986" rx="27.493" fill="#fff"/>
  <path id="Icon_material-live-tv" data-name="Icon material-live-tv" d="M32.017,9.1H20.436l5.02-5.02L24.388,3l-6.1,6.1L12.181,3,11.1,4.083,16.133,9.1H4.552A3.051,3.051,0,0,0,1.5,12.155v18.31a3.061,3.061,0,0,0,3.052,3.052H32.017a3.061,3.061,0,0,0,3.052-3.052V12.155A3.051,3.051,0,0,0,32.017,9.1Zm0,21.362H4.552V12.155H32.017ZM13.707,15.207V27.413l10.681-6.1Z" transform="translate(10.763 7.206)" fill="#0ab883"/>
  <path id="Icon_material-live-tv-2" data-name="Icon material-live-tv" d="M13.707,15.207V27.413l10.681-6.1Z" transform="translate(10.763 7.206)" fill="#323232"/>
</svg>
